<?xml version="1.0" encoding="UTF-8" standalone="no"?>
<svg
  height="1024"
  stroke-miterlimit="10"
  style="clip-rule:evenodd;fill-rule:nonzero;stroke-linecap:round;stroke-linejoin:round"
  version="1.1"
  width="1024"
  x="0px"
  y="0px"
  viewBox="0 0 1024 1024"
	enable-background="new 0 0 1024 1024"
  xmlns="http://www.w3.org/2000/svg"
  xmlns:svg="http://www.w3.org/2000/svg"
>
  <style>
    .logo {
      font-family: -apple-system, "system-ui", Avenir, "Avenir Next", "Segoe UI", Roboto, Oxygen, Ubuntu, Cantarell, "Fira Sans", "Droid Sans", "Helvetica Neue", sans-serif;
      --color-primary: #34698c;
      --color-secondary: #5f6841;
      --color-tertiary: #805562;
      --stroke-width: 20;
      --fill-lightness: 1.2;
      --stroke-lightness: .5;
    }

    #logo {
      clip-path: rect(0, 0, 1024, 1024);
    }

    @media (prefers-color-scheme: light) {
      .logo {
        --fill-lightness: 1.4;
        --stroke-lightness: .75;
      }
    }

    @media (prefers-color-scheme: dark) {
      .logo {
        --fill-lightness: 1.8;
        --stroke-lightness: .8;
      }
    }

    .arrows path {
      fill: oklch(from var(--color-secondary) calc(l * var(--fill-lightness)) c h);
      fill-rule: "nonzero";
      opacity: 1;
      stroke: oklch(from var(--color-secondary) calc(l * var(--stroke-lightness)) c h);
      stroke-linecap: butt;
      stroke-linejoin: round;
      stroke-width: var(--stroke-width);
    }

    #hourglass .sand {
      fill: black;
      fill-opacity: 0.5;
      opacity: 1;
      stroke: none;
      fill-rule: nonzero;
    }

    #hourglass .light {
      fill: white;
      fill-opacity: 0.5;
      opacity: 1;
      stroke: none;
      fill-rule: nonzero;
    }

    #hourglass .glass {
      fill: oklch(from var(--color-primary) calc(l * var(--fill-lightness)) c h);
      fill-rule: nonzero;
      opacity: 1;
      stroke: oklch(from var(--color-primary) calc(l * var(--stroke-lightness)) c h);
      stroke-linecap: butt;
      stroke-linejoin: round;
      stroke-width: var(--stroke-width);
    }

    #hourglass .base {
      fill: oklch(from var(--color-tertiary) calc(l * var(--fill-lightness)) c h);
      fill-rule: nonzero;
      opacity: 1;
      stroke: oklch(from var(--color-tertiary) calc(l * var(--stroke-lightness)) c h);
      stroke-linecap: butt;
      stroke-linejoin: round;
      stroke-width: var(--stroke-width);
    }
  </style>
  <symbol id="logo" width="1024" height="1024" viewBox="0 0 1024 1024" preserveAspectRatio="xMidYMid meet" class="logo">
    <g id="hourglass">
      <path
        d="
          m 509.5,261
          c -61.573,0
            -115,2.78
            -115,81.531
            0,73.025
            45.958,146.769
            101.733,157.125
            0.425,2.493
            0.809,5.003
            0.809,7.344
            0,4.349
            -1.253,10.07
            -1.647,15.531
            -10e-4,0.011
            0,0.021
            0,0.032
            -55.392,10.944
            -100.895,84.252
            -100.895,156.906
            0,78.751
            53.427,81.531
            115,81.531
            61.573,0
            115,-2.78
            115,-81.531
            0,-71.758
            -44.396,-144.116
            -98.858,-156.438
            -0.349,-5.613
            -1.647,-11.545
            -1.647,-16.031
            0,-2.497
            0.409,-5.185
            0.838,-7.844
            C 579.665,487.375
            624.5,414.645
            624.5,342.531
            624.5,263.78
            571.073,261
            509.5,261
          Z
        "
        class="glass"
      />
      <path
        d="
          m 509.5,509.024
          c -5,-4.941
            0.847,-17.084
            -10,-19.763
            -20,-4.941
            -48.512,-19.544
            -50.49,-41.554
            -0.748,-8.328
            15.851,-9.807
            20.065,-10.067
            15.114,-0.932
            31.544,4.927
            46.155,1.558
            25.977,-5.991
            52.557,-22.394
            75.532,-32.676
            2.618,-1.172
            6.145,-2.517
            8.926,-0.851
            6.222,3.728
            -2.327,14.522
            -5.966,20.747
            -4.217,7.214
            -9.143,14.013
            -14.16,20.708
            -7.602,10.145
            -19.809,19.746
            -29.618,28.607
          C 529.5,494.202
            519.5,484.32
            514.5,494.202
        "
        class="sand"
      />
      <path
        d="m 499.5,642.423
          c -4.903,9.305
            -11.284,18.714
            -20,24.703
            -21.883,15.039
            -49.511,7.857
            -70,24.704
            -7.108,5.845
            0,19.763
            7.63,33.311
            12.37,21.037
            53.439,24.814
            82.086,25.169
            65.284,0.809
            85.284,-9.073
            98.976,-20.703
            8.233,-6.994
            16.921,-38.922
            6.308,-42.718
            -28.687,-13.09
            -65,-4.94
            -75,-24.703
            -12.2,-24.111
            -17.224,-57.176
            -20,-83.992
        "
        class="sand"
      />
      <path
        d="
          m 404.5,331.158
          c 0,-22.095
            24.583,-22.562
            25,0
            0.151,48.389
            -5,54.348
            10,103.755
            -20,-29.644
            -35,-59.288
            -35,-88.933
        "
        class="light"
      />
      <path
        d="
          m 416.48,627.601
          c 6.613,-24.255
            15,-34.585
            20,-44.467
            5.015,-9.91
            22.469,-29.431
            40,-34.585
            35,0
            -10,19.763
            -25,44.467
        "
        class="light"
      />
      <path
        d="
          m 345,220
          h 335
          v 45
          H 345
          Z
        "
        class="base"
      />
      <path
        d="
          m 345,760
          h 335
          v 45
          H 345
          Z
        "
        class="base"
      />
    </g>
    <g class="arrows">
      <path
        d="
          m 200.749,156.469
          c -17.23,-14.88
            -32.488,-32.411
            -51.691,-44.639
            -8.025,-5.111
            -18.411,-6.783
            -27.896,-6.041
            -7.206,0.565
            -12.932,21.576
            -13.81,30.733
            -6.465,67.447
            -14.8206,134.914
            -15.6281,202.665
            -0.0824,6.919
            6.7275,13.289
            13.0201,16.168
            6.966,3.187
            15.556,2.192
            22.98,0.301
            62.215,-15.844
            124.433,-32.235
            185.083,-53.288
            5.206,-1.808
            8.1,-8.54
            8.782,-14.009
            0.846,-6.794
            -0.26,-14.69
            -4.541,-20.033
            -17.315,-21.609
            -39.1,-39.219
            -58.65,-58.828
            40.453,-31.24
            81.832,-63.553
            129.392,-82.272
            46.044,-18.122
            97.52,-21.881
            146.988,-20.746
            91.071,2.089
            176.278,48.693
            238.818,112.441
            64.982,66.237
            100.683,150.759
            114.943,241.414
            3.634,23.101
            -1.405,47.679
            5.844,69.912
            3.397,10.42
            14.738,16.73
            24.205,22.252
            7.378,4.303
            27.412,-1.309
            32.224,-6.32
            6.157,-6.413
            12.372,-14.719
            12.408,-23.61
            0.159,-40.377
            5.441,-65.024
            -4.559,-115.024
            -5.987,-29.936
            -14.507,-66.33
            -25,-95
            -11.796,-32.232
            -35,-80
            -60,-110
          C 840.965,163.31
            821.25,138.425
            780.593,107.515
            685.532,35.2466
            575.443,19.9386
            459.46,30.3958
            425.443,33.4628
            389.467,42.4245
            357.925,55.4917
            334.477,65.2059
            310.576,74.6005
            289.222,88.3193
            257.903,108.44
            230.24,133.752
            200.749,156.469
          Z
        "
      />
      <path
        d="
          m 820.488,868.421
          c 20.907,16.875
            40.295,35.829
            62.721,50.625
            8.238,5.434
            25.795,-1.796
            27.259,-11.556
            10.529,-70.202
            17.351,-140.978
            22.285,-211.794
            0.467,-6.7
            -1.931,-13.98
            -6.191,-19.173
            -4.047,-4.933
            -10.659,-10.29
            -16.904,-8.982
            -67.386,14.119
            -133.848,32.884
            -199.288,54.28
            -5.343,1.747
            -7.977,8.543
            -9.449,13.968
            -1.429,5.265
            -2.231,12.104
            1.231,16.321
            18.693,22.768
            49.575,36.854
            60.889,64.053
            -38.267,30.395
            -77.378,62.588
            -123.288,79.337
            -26.863,9.8
            -54.78,17.26
            -83.076,21.378
            -24.737,3.601
            -50.092,4.021
            -74.974,1.627
            -26.509,-2.551
            -52.662,-8.814
            -78.199,-16.367
            -20.241,-5.987
            -40.318,-13.474
            -58.566,-24.082
            -28.318,-16.463
            -56.346,-34.303
            -80.299,-56.647
            -26.171,-24.413
            -47.999,-53.305
            -68.796,-82.432
            -12.162,-17.034
            -21.192,-36.208
            -29.601,-55.375
            -8.463,-19.287
            -16.781,-38.979
            -20.864,-59.642
            -8.175,-41.366
            -7.289,-84.204
            -15.729,-125.517
            -1.511,-7.394
            -7.506,-13.658
            -13.612,-18.093
            -11.294,-8.204
            -30.4801,-12.613
            -41.659,-4.255
            -4.9,3.664
            -9.6667,8.764
            -10.922,14.752
            -3.7777,18.022
            -4.9985,36.745
            -3.7237,55.115
            2.1373,30.796
            6.3874,61.62
            13.903,91.561
            8.1045,32.287
            19.5905,63.767
            32.7607,94.34
            18.429,42.781
            51.343,89.287
            83.077,122.716
            112.39,118.389
            263.463,166.541
            423.117,130.027
            24.574,-5.62
            48.984,-12.863
            71.99,-23.171
            50.097,-22.446
            93.61,-58.021
            135.908,-93.014
          z
        "
      />
    </g>
  </symbol>
  <use href="#logo" x="0" y="0" />
</svg>
